  0
SECTION
  2
HEADER
  9
$ANGBASE
  50
0.0
  9
$ANGDIR
  70
1
  9
$MEASUREMENT
  70
0
  9
$INSUNITS
  70
1
  0
ENDSEC
  0
SECTION
  2
TABLES
  0
TABLE
  2
LTYPE
  70
4
  0
LTYPE
  5
40F
  2
CONTINUOUS
  70
0
  3
Solid line
  72
65
  73
0
  40
0.0
  0
LTYPE
  5
410
  2
DASHDOT
 70
0
  3
Dash Dot ____ _ ____ _
 72
65
 73
4
 40
2.0
 49
1.25
 49
-0.25
 49
0.25
 49
-0.25
  0
LTYPE
  5
411
  2
DASHED
 70
0
  3
Dashed __ __ __ __ __
 72
65
 73
2
 40
0.75
 49
0.5
 49
-0.25
  0
LTYPE
  5
43B
  2
DOTTED
 70
0
  3
Dotted .  .  .  .
 72
65
 73
2
 40
0.2
 49
0.0
 49
-0.2
  0
ENDTAB
  0
TABLE
  2
STYLE
  70
4
  0
STYLE
  2
KICAD
  70
0
  40
0
  41
1
  42
1
  50
0
  71
0
  3
isocp.shx
  0
STYLE
  2
KICADB
  70
0
  40
0
  41
1
  42
1
  50
0
  71
0
  3
isocp.shx
  0
STYLE
  2
KICADI
  70
0
  40
0
  41
1
  42
1
  50
15
  71
0
  3
isocp.shx
  0
STYLE
  2
KICADBI
  70
0
  40
0
  41
1
  42
1
  50
15
  71
0
  3
isocp.shx
  0
ENDTAB
  0
TABLE
  2
LAYER
  70
1
  0
LAYER
  2
Edge.Cuts
  70
0
  62
254
  420
13685453
  6
CONTINUOUS
  0
ENDTAB
  0
ENDSEC
  0
SECTION
  2
ENTITIES
0
LINE
8
Edge.Cuts
6
CONTINUOUS
10
8.9410150787401577
20
-0.8702154330708661
11
8.9410151181102364
21
-0.8702154330708661
0
LINE
8
Edge.Cuts
6
CONTINUOUS
10
8.9410151181102364
20
-0.8702154330708661
11
8.9573482283464561
21
-0.8708966141732283
0
LINE
8
Edge.Cuts
6
CONTINUOUS
10
8.9573482283464561
20
-0.8708966141732283
11
8.9735693700787404
21
-0.8729239763779527
0
LINE
8
Edge.Cuts
6
CONTINUOUS
10
8.9735693700787404
20
-0.8729239763779527
11
8.9895677559055116
21
-0.8762836220472441
0
LINE
8
Edge.Cuts
6
CONTINUOUS
10
8.9895677559055116
20
-0.8762836220472441
11
9.0052341338582682
21
-0.8809526377952756
0
LINE
8
Edge.Cuts
6
CONTINUOUS
10
9.0052341338582682
20
-0.8809526377952756
11
9.0204615354330713
21
-0.8868991732283464
0
LINE
8
Edge.Cuts
6
CONTINUOUS
10
9.0204615354330713
20
-0.8868991732283464
11
9.0351460236220476
21
-0.8940825590551181
0
LINE
8
Edge.Cuts
6
CONTINUOUS
10
9.0351460236220476
20
-0.8940825590551181
11
9.0491872834645672
21
-0.902453779527559
0
LINE
8
Edge.Cuts
6
CONTINUOUS
10
9.0491872834645672
20
-0.902453779527559
11
9.0624895275590553
21
-0.9119557086614173
0
LINE
8
Edge.Cuts
6
CONTINUOUS
10
9.0624895275590553
20
-0.9119557086614173
11
9.0749618110236216
21
-0.9225234251968504
0
LINE
8
Edge.Cuts
6
CONTINUOUS
10
9.0749618110236216
20
-0.9225234251968504
11
9.0865190944881888
21
-0.9340847637795275
0
LINE
8
Edge.Cuts
6
CONTINUOUS
10
9.0865190944881888
20
-0.9340847637795275
11
9.0970823622047234
21
-0.9465608267716535
0
LINE
8
Edge.Cuts
6
CONTINUOUS
10
9.0970823622047234
20
-0.9465608267716535
11
9.106579566929133
21
-0.9598664173228346
0
LINE
8
Edge.Cuts
6
CONTINUOUS
10
9.106579566929133
20
-0.9598664173228346
11
9.1149457874015738
21
-0.9739106692913385
0
LINE
8
Edge.Cuts
6
CONTINUOUS
10
9.1149457874015738
20
-0.9739106692913385
11
9.1221239763779529
21
-0.988597716535433
0
LINE
8
Edge.Cuts
6
CONTINUOUS
10
9.1221239763779529
20
-0.988597716535433
11
9.1280650787401569
21
-1.0038272440944882
0
LINE
8
Edge.Cuts
6
CONTINUOUS
10
9.1280650787401569
20
-1.0038272440944882
11
9.1327285433070866
21
-1.0194952755905511
0
LINE
8
Edge.Cuts
6
CONTINUOUS
10
9.1327285433070866
20
-1.0194952755905511
11
9.1360825196850399
21
-1.0354948031496063
0
LINE
8
Edge.Cuts
6
CONTINUOUS
10
9.1360825196850399
20
-1.0354948031496063
11
9.1381041338582669
21
-1.0517166535433071
0
LINE
8
Edge.Cuts
6
CONTINUOUS
10
9.1381041338582669
20
-1.0517166535433071
11
9.1387795275590555
21
-1.0680500393700787
0
LINE
8
Edge.Cuts
6
CONTINUOUS
10
9.1387795275590555
20
-1.0680500393700787
11
9.1387795275590555
21
-5.4281660629921262
0
LINE
8
Edge.Cuts
6
CONTINUOUS
10
9.1387795275590555
20
-5.4281660629921262
11
9.1381659055118103
21
-5.4437359448818894
0
LINE
8
Edge.Cuts
6
CONTINUOUS
10
9.1381659055118103
20
-5.4437359448818894
11
9.1363287795275596
21
-5.4592092519685034
0
LINE
8
Edge.Cuts
6
CONTINUOUS
10
9.1363287795275596
20
-5.4592092519685034
11
9.1332795669291329
21
-5.4744900000000003
0
LINE
8
Edge.Cuts
6
CONTINUOUS
10
9.1332795669291329
20
-5.4744900000000003
11
9.1290372440944871
21
-5.4894833464566926
0
LINE
8
Edge.Cuts
6
CONTINUOUS
10
9.1290372440944871
20
-5.4894833464566926
11
9.1236280314960627
21
-5.5040963385826771
0
LINE
8
Edge.Cuts
6
CONTINUOUS
10
9.1236280314960627
20
-5.5040963385826771
11
9.1170855905511807
21
-5.5182382677165354
0
LINE
8
Edge.Cuts
6
CONTINUOUS
10
9.1170855905511807
20
-5.5182382677165354
11
9.1094503937007865
21
-5.5318214173228348
0
LINE
8
Edge.Cuts
6
CONTINUOUS
10
9.1094503937007865
20
-5.5318214173228348
11
9.1007698818897644
21
-5.5447615748031494
0
LINE
8
Edge.Cuts
6
CONTINUOUS
10
9.1007698818897644
20
-5.5447615748031494
11
9.091097913385827
21
-5.5569783858267714
0
LINE
8
Edge.Cuts
6
CONTINUOUS
10
9.091097913385827
20
-5.5569783858267714
11
9.0804944488188966
21
-5.5683961417322836
0
LINE
8
Edge.Cuts
6
CONTINUOUS
10
9.0804944488188966
20
-5.5683961417322836
11
8.5582917716535434
21
-6.088064724409449
0
LINE
8
Edge.Cuts
6
CONTINUOUS
10
8.5582917716535434
20
-6.088064724409449
11
8.5468959055118106
21
-6.0985501968503932
0
LINE
8
Edge.Cuts
6
CONTINUOUS
10
8.5468959055118106
20
-6.0985501968503932
11
8.5347148425196853
21
-6.1081122047244092
0
LINE
8
Edge.Cuts
6
CONTINUOUS
10
8.5347148425196853
20
-6.1081122047244092
11
8.5218231889763771
21
-6.1166921653543307
0
LINE
8
Edge.Cuts
6
CONTINUOUS
10
8.5218231889763771
20
-6.1166921653543307
11
8.5082999212598427
21
-6.1242374803149602
0
LINE
8
Edge.Cuts
6
CONTINUOUS
10
8.5082999212598427
20
-6.1242374803149602
11
8.4942279133858261
21
-6.1307019685039368
0
LINE
8
Edge.Cuts
6
CONTINUOUS
10
8.4942279133858261
20
-6.1307019685039368
11
8.4796933858267707
21
-6.1360459448818894
0
LINE
8
Edge.Cuts
6
CONTINUOUS
10
8.4796933858267707
20
-6.1360459448818894
11
8.4647853937007866
21
-6.1402367322834648
0
LINE
8
Edge.Cuts
6
CONTINUOUS
10
8.4647853937007866
20
-6.1402367322834648
11
8.4495953149606304
21
-6.1432486614173225
0
LINE
8
Edge.Cuts
6
CONTINUOUS
10
8.4495953149606304
20
-6.1432486614173225
11
8.4342161417322838
21
-6.145063188976378
0
LINE
8
Edge.Cuts
6
CONTINUOUS
10
8.4342161417322838
20
-6.145063188976378
11
8.4187422047244098
21
-6.1456692913385824
0
LINE
8
Edge.Cuts
6
CONTINUOUS
10
8.4187422047244098
20
-6.1456692913385824
11
1.8216160236220471
21
-6.1456692913385824
0
LINE
8
Edge.Cuts
6
CONTINUOUS
10
1.8216160236220471
20
-6.1456692913385824
11
1.8052792519685039
21
-6.1449935826771656
0
LINE
8
Edge.Cuts
6
CONTINUOUS
10
1.8052792519685039
20
-6.1449935826771656
11
1.789054094488189
21
-6.142971141732283
0
LINE
8
Edge.Cuts
6
CONTINUOUS
10
1.789054094488189
20
-6.142971141732283
11
1.7730513385826772
21
-6.1396157874015751
0
LINE
8
Edge.Cuts
6
CONTINUOUS
10
1.7730513385826772
20
-6.1396157874015751
11
1.75738031496063
21
-6.1349503937007874
0
LINE
8
Edge.Cuts
6
CONTINUOUS
10
1.75738031496063
20
-6.1349503937007874
11
1.7421480708661417
21
-6.1290068503937007
0
LINE
8
Edge.Cuts
6
CONTINUOUS
10
1.7421480708661417
20
-6.1290068503937007
11
1.7274586614173228
21
-6.1218257874015745
0
LINE
8
Edge.Cuts
6
CONTINUOUS
10
1.7274586614173228
20
-6.1218257874015745
11
1.7134124015748031
21
-6.1134561811023618
0
LINE
8
Edge.Cuts
6
CONTINUOUS
10
1.7134124015748031
20
-6.1134561811023618
11
1.7001052755905512
21
-6.10395531496063
0
LINE
8
Edge.Cuts
6
CONTINUOUS
10
1.7001052755905512
20
-6.10395531496063
11
1.687628188976378
21
-6.0933879921259839
0
LINE
8
Edge.Cuts
6
CONTINUOUS
10
1.687628188976378
20
-6.0933879921259839
11
1.6760662992125983
21
-6.0818264173228345
0
LINE
8
Edge.Cuts
6
CONTINUOUS
10
1.6760662992125983
20
-6.0818264173228345
11
1.6654986614173228
21
-6.0693496062992125
0
LINE
8
Edge.Cuts
6
CONTINUOUS
10
1.6654986614173228
20
-6.0693496062992125
11
1.6559974015748031
21
-6.0560427165354334
0
LINE
8
Edge.Cuts
6
CONTINUOUS
10
1.6559974015748031
20
-6.0560427165354334
11
1.6476274409448819
21
-6.0419966929133855
0
LINE
8
Edge.Cuts
6
CONTINUOUS
10
1.6476274409448819
20
-6.0419966929133855
11
1.6404459842519685
21
-6.0273074803149607
0
LINE
8
Edge.Cuts
6
CONTINUOUS
10
1.6404459842519685
20
-6.0273074803149607
11
1.6345020078740158
21
-6.0120754330708657
0
LINE
8
Edge.Cuts
6
CONTINUOUS
10
1.6345020078740158
20
-6.0120754330708657
11
1.6298362204724408
21
-5.9964045275590552
0
LINE
8
Edge.Cuts
6
CONTINUOUS
10
1.6298362204724408
20
-5.9964045275590552
11
1.6264803937007875
21
-5.9804018503937009
0
LINE
8
Edge.Cuts
6
CONTINUOUS
10
1.6264803937007875
20
-5.9804018503937009
11
1.6244575196850393
21
-5.9641767322834642
0
LINE
8
Edge.Cuts
6
CONTINUOUS
10
1.6244575196850393
20
-5.9641767322834642
11
1.6237813779527559
21
-5.9478400000000002
0
LINE
8
Edge.Cuts
6
CONTINUOUS
10
1.6237813779527559
20
-5.9478400000000002
11
1.6236491732283465
21
-1.0655279921259841
0
LINE
8
Edge.Cuts
6
CONTINUOUS
10
1.6236491732283465
20
-1.0655279921259841
11
1.6236491732283465
21
-1.0655279133858266
0
LINE
8
Edge.Cuts
6
CONTINUOUS
10
1.6236491732283465
20
-1.0655279133858266
11
1.6243247244094488
21
-1.0491869291338582
0
LINE
8
Edge.Cuts
6
CONTINUOUS
10
1.6243247244094488
20
-1.0491869291338582
11
1.6263477559055117
21
-1.0329575196850393
0
LINE
8
Edge.Cuts
6
CONTINUOUS
10
1.6263477559055117
20
-1.0329575196850393
11
1.6297044094488189
21
-1.0169506692913386
0
LINE
8
Edge.Cuts
6
CONTINUOUS
10
1.6297044094488189
20
-1.0169506692913386
11
1.6343717322834646
21
-1.0012757874015747
0
LINE
8
Edge.Cuts
6
CONTINUOUS
10
1.6343717322834646
20
-1.0012757874015747
11
1.640317874015748
21
-0.98604
0
LINE
8
Edge.Cuts
6
CONTINUOUS
10
1.640317874015748
20
-0.98604
11
1.6475021653543307
21
-0.9713474015748031
0
LINE
8
Edge.Cuts
6
CONTINUOUS
10
1.6475021653543307
20
-0.9713474015748031
11
1.6558754724409448
21
-0.9572984251968504
0
LINE
8
Edge.Cuts
6
CONTINUOUS
10
1.6558754724409448
20
-0.9572984251968504
11
1.6653806299212599
21
-0.9439890944881889
0
LINE
8
Edge.Cuts
6
CONTINUOUS
10
1.6653806299212599
20
-0.9439890944881889
11
1.6759526771653543
21
-0.9315103937007874
0
LINE
8
Edge.Cuts
6
CONTINUOUS
10
1.6759526771653543
20
-0.9315103937007874
11
1.6875192913385826
21
-0.9199475196850393
0
LINE
8
Edge.Cuts
6
CONTINUOUS
10
1.6875192913385826
20
-0.9199475196850393
11
1.7000014960629921
21
-0.9093796062992126
0
LINE
8
Edge.Cuts
6
CONTINUOUS
10
1.7000014960629921
20
-0.9093796062992126
11
1.713313937007874
21
-0.8998788188976378
0
LINE
8
Edge.Cuts
6
CONTINUOUS
10
1.713313937007874
20
-0.8998788188976378
11
1.7273656299212599
21
-0.8915101181102362
0
LINE
8
Edge.Cuts
6
CONTINUOUS
10
1.7273656299212599
20
-0.8915101181102362
11
1.742060590551181
21
-0.8843306299212598
0
LINE
8
Edge.Cuts
6
CONTINUOUS
10
1.742060590551181
20
-0.8843306299212598
11
1.7572983464566929
21
-0.8783895275590551
0
LINE
8
Edge.Cuts
6
CONTINUOUS
10
1.7572983464566929
20
-0.8783895275590551
11
1.7729747637795275
21
-0.8737273228346456
0
LINE
8
Edge.Cuts
6
CONTINUOUS
10
1.7729747637795275
20
-0.8737273228346456
11
1.7889827165354331
21
-0.8703759448818897
0
LINE
8
Edge.Cuts
6
CONTINUOUS
10
1.7889827165354331
20
-0.8703759448818897
11
1.8052127952755905
21
-0.8683582283464567
0
LINE
8
Edge.Cuts
6
CONTINUOUS
10
1.8052127952755905
20
-0.8683582283464567
11
1.8215540551181102
21
-0.867688031496063
0
LINE
8
Edge.Cuts
6
CONTINUOUS
10
1.8215540551181102
20
-0.867688031496063
11
8.9410150787401577
21
-0.8702154330708661
0
LINE
8
Edge.Cuts
6
CONTINUOUS
10
1.797299094488189
20
-0.8709866141732283
11
1.7813131496062993
21
-0.8736489763779527
0
LINE
8
Edge.Cuts
6
CONTINUOUS
10
1.7813131496062993
20
-0.8736489763779527
11
1.7656017716535433
21
-0.8776226771653544
0
LINE
8
Edge.Cuts
6
CONTINUOUS
10
1.7656017716535433
20
-0.8776226771653544
11
1.7502723228346457
21
-0.8828805905511811
0
LINE
8
Edge.Cuts
6
CONTINUOUS
10
1.7502723228346457
20
-0.8828805905511811
11
1.735429527559055
21
-0.8893866929133858
0
LINE
8
Edge.Cuts
6
CONTINUOUS
10
1.735429527559055
20
-0.8893866929133858
11
1.7211748425196851
21
-0.8970966141732283
0
LINE
8
Edge.Cuts
6
CONTINUOUS
10
1.7211748425196851
20
-0.8970966141732283
11
1.7076057480314961
21
-0.9059575984251969
0
LINE
8
Edge.Cuts
6
CONTINUOUS
10
1.7076057480314961
20
-0.9059575984251969
11
1.6948149212598425
21
-0.9159090944881889
0
LINE
8
Edge.Cuts
6
CONTINUOUS
10
1.6948149212598425
20
-0.9159090944881889
11
1.6828897637795275
21
-0.9268831496062991
0
LINE
8
Edge.Cuts
6
CONTINUOUS
10
1.6828897637795275
20
-0.9268831496062991
11
1.6719118503937007
21
-0.9388046456692913
0
LINE
8
Edge.Cuts
6
CONTINUOUS
10
1.6719118503937007
20
-0.9388046456692913
11
1.6619561417322835
21
-0.9515922440944882
0
LINE
8
Edge.Cuts
6
CONTINUOUS
10
1.6619561417322835
20
-0.9515922440944882
11
1.6530906692913385
21
-0.9651584251968504
0
LINE
8
Edge.Cuts
6
CONTINUOUS
10
1.6530906692913385
20
-0.9651584251968504
11
1.6453761023622047
21
-0.9794105905511811
0
LINE
8
Edge.Cuts
6
CONTINUOUS
10
1.6453761023622047
20
-0.9794105905511811
11
1.6388651181102363
21
-0.994251220472441
0
LINE
8
Edge.Cuts
6
CONTINUOUS
10
1.6388651181102363
20
-0.994251220472441
11
1.6336022047244094
21
-1.0095789763779528
0
LINE
8
Edge.Cuts
6
CONTINUOUS
10
1.6336022047244094
20
-1.0095789763779528
11
1.6296233070866142
21
-1.0252890551181102
0
LINE
8
Edge.Cuts
6
CONTINUOUS
10
1.6296233070866142
20
-1.0252890551181102
11
1.6269557086614173
21
-1.0412740944881889
0
LINE
8
Edge.Cuts
6
CONTINUOUS
10
1.6269557086614173
20
-1.0412740944881889
11
1.6256175590551181
21
-1.0574248818897638
0
LINE
8
Edge.Cuts
6
CONTINUOUS
10
1.6256175590551181
20
-1.0574248818897638
11
1.6256176771653543
21
-1.0655279133858266
0
LINE
8
Edge.Cuts
6
CONTINUOUS
10
1.6256176771653543
20
-1.0655279133858266
11
1.6257498818897638
21
-5.9478399212598427
0
LINE
8
Edge.Cuts
6
CONTINUOUS
10
1.6257498818897638
20
-5.9478399212598427
11
1.6257501181102363
21
-5.9559408661417326
0
LINE
8
Edge.Cuts
6
CONTINUOUS
10
1.6257501181102363
20
-5.9559408661417326
11
1.6270885039370078
21
-5.9720874015748029
0
LINE
8
Edge.Cuts
6
CONTINUOUS
10
1.6270885039370078
20
-5.9720874015748029
11
1.6297556299212599
21
-5.9880682283464566
0
LINE
8
Edge.Cuts
6
CONTINUOUS
10
1.6297556299212599
20
-5.9880682283464566
11
1.6337333070866142
21
-6.0037742519685038
0
LINE
8
Edge.Cuts
6
CONTINUOUS
10
1.6337333070866142
20
-6.0037742519685038
11
1.6389944094488189
21
-6.0190981496062994
0
LINE
8
Edge.Cuts
6
CONTINUOUS
10
1.6389944094488189
20
-6.0190981496062994
11
1.6455029133858268
21
-6.0339352755905509
0
LINE
8
Edge.Cuts
6
CONTINUOUS
10
1.6455029133858268
20
-6.0339352755905509
11
1.6532144488188976
21
-6.0481842519685038
0
LINE
8
Edge.Cuts
6
CONTINUOUS
10
1.6532144488188976
20
-6.0481842519685038
11
1.6620762598425196
21
-6.0617477952755907
0
LINE
8
Edge.Cuts
6
CONTINUOUS
10
1.6620762598425196
20
-6.0617477952755907
11
1.6720278740157479
21
-6.0745331889763774
0
LINE
8
Edge.Cuts
6
CONTINUOUS
10
1.6720278740157479
20
-6.0745331889763774
11
1.6830012598425197
21
-6.0864531496062995
0
LINE
8
Edge.Cuts
6
CONTINUOUS
10
1.6830012598425197
20
-6.0864531496062995
11
1.6949215354330709
21
-6.0974262204724408
0
LINE
8
Edge.Cuts
6
CONTINUOUS
10
1.6949215354330709
20
-6.0974262204724408
11
1.7077072047244095
21
-6.1073774803149607
0
LINE
8
Edge.Cuts
6
CONTINUOUS
10
1.7077072047244095
20
-6.1073774803149607
11
1.7212709448818897
21
-6.116238937007874
0
LINE
8
Edge.Cuts
6
CONTINUOUS
10
1.7212709448818897
20
-6.116238937007874
11
1.735520157480315
21
-6.1239500787401573
0
LINE
8
Edge.Cuts
6
CONTINUOUS
10
1.735520157480315
20
-6.1239500787401573
11
1.7503574409448819
21
-6.1304581889763776
0
LINE
8
Edge.Cuts
6
CONTINUOUS
10
1.7503574409448819
20
-6.1304581889763776
11
1.7656814960629921
21
-6.1357188582677162
0
LINE
8
Edge.Cuts
6
CONTINUOUS
10
1.7656814960629921
20
-6.1357188582677162
11
1.7813876377952755
21
-6.1396961417322835
0
LINE
8
Edge.Cuts
6
CONTINUOUS
10
1.7813876377952755
20
-6.1396961417322835
11
1.7973685433070865
21
-6.1423628346456693
0
LINE
8
Edge.Cuts
6
CONTINUOUS
10
1.7973685433070865
20
-6.1423628346456693
11
1.8135150787401575
21
-6.1437007480314962
0
LINE
8
Edge.Cuts
6
CONTINUOUS
10
1.8135150787401575
20
-6.1437007480314962
11
1.8216160236220471
21
-6.143700787401575
0
LINE
8
Edge.Cuts
6
CONTINUOUS
10
1.8216160236220471
20
-6.143700787401575
11
8.4187422047244098
21
-6.143700787401575
0
LINE
8
Edge.Cuts
6
CONTINUOUS
10
8.4187422047244098
20
-6.143700787401575
11
8.4264139763779529
21
-6.1437017322834642
0
LINE
8
Edge.Cuts
6
CONTINUOUS
10
8.4264139763779529
20
-6.1437017322834642
11
8.441710551181103
21
-6.142501614173228
0
LINE
8
Edge.Cuts
6
CONTINUOUS
10
8.441710551181103
20
-6.142501614173228
11
8.4568663779527551
21
-6.1401087401574799
0
LINE
8
Edge.Cuts
6
CONTINUOUS
10
8.4568663779527551
20
-6.1401087401574799
11
8.4717885826771653
21
-6.1365377165354333
0
LINE
8
Edge.Cuts
6
CONTINUOUS
10
8.4717885826771653
20
-6.1365377165354333
11
8.4863857874015753
21
-6.1318105118110235
0
LINE
8
Edge.Cuts
6
CONTINUOUS
10
8.4863857874015753
20
-6.1318105118110235
11
8.5005685433070859
21
-6.1259560236220469
0
LINE
8
Edge.Cuts
6
CONTINUOUS
10
8.5005685433070859
20
-6.1259560236220469
11
8.514249921259843
21
-6.1190101574803144
0
LINE
8
Edge.Cuts
6
CONTINUOUS
10
8.514249921259843
20
-6.1190101574803144
11
8.5273460629921249
21
-6.1110154330708664
0
LINE
8
Edge.Cuts
6
CONTINUOUS
10
8.5273460629921249
20
-6.1110154330708664
11
8.5397768110236214
21
-6.1020209055118109
0
LINE
8
Edge.Cuts
6
CONTINUOUS
10
8.5397768110236214
20
-6.1020209055118109
11
8.5514659448818904
21
-6.0920816141732281
0
LINE
8
Edge.Cuts
6
CONTINUOUS
10
8.5514659448818904
20
-6.0920816141732281
11
8.5569031889763778
21
-6.0866693700787398
0
LINE
8
Edge.Cuts
6
CONTINUOUS
10
8.5569031889763778
20
-6.0866693700787398
11
9.0791058661417328
21
-5.5670007874015743
0
LINE
8
Edge.Cuts
6
CONTINUOUS
10
9.0791058661417328
20
-5.5670007874015743
11
9.0845769685039368
21
-5.5615550000000002
0
LINE
8
Edge.Cuts
6
CONTINUOUS
10
9.0845769685039368
20
-5.5615550000000002
11
9.0946293700787404
21
-5.5498371653543304
0
LINE
8
Edge.Cuts
6
CONTINUOUS
10
9.0946293700787404
20
-5.5498371653543304
11
9.1037283464566929
21
-5.537364566929134
0
LINE
8
Edge.Cuts
6
CONTINUOUS
10
9.1037283464566929
20
-5.537364566929134
11
9.1118175196850384
21
-5.5242145275590548
0
LINE
8
Edge.Cuts
6
CONTINUOUS
10
9.1118175196850384
20
-5.5242145275590548
11
9.1188466929133849
21
-5.5104686614173231
0
LINE
8
Edge.Cuts
6
CONTINUOUS
10
9.1188466929133849
20
-5.5104686614173231
11
9.1247722440944887
21
-5.4962122440944885
0
LINE
8
Edge.Cuts
6
CONTINUOUS
10
9.1247722440944887
20
-5.4962122440944885
11
9.129557362204725
21
-5.4815336614173225
0
LINE
8
Edge.Cuts
6
CONTINUOUS
10
9.129557362204725
20
-5.4815336614173225
11
9.1331724409448825
21
-5.466524015748031
0
LINE
8
Edge.Cuts
6
CONTINUOUS
10
9.1331724409448825
20
-5.466524015748031
11
9.1355950393700791
21
-5.4512764566929128
0
LINE
8
Edge.Cuts
6
CONTINUOUS
10
9.1355950393700791
20
-5.4512764566929128
11
9.1368101181102368
21
-5.4358854724409449
0
LINE
8
Edge.Cuts
6
CONTINUOUS
10
9.1368101181102368
20
-5.4358854724409449
11
9.1368110236220463
21
-5.4281660629921262
0
LINE
8
Edge.Cuts
6
CONTINUOUS
10
9.1368110236220463
20
-5.4281660629921262
11
9.1368110236220463
21
-1.0680500393700787
0
LINE
8
Edge.Cuts
6
CONTINUOUS
10
9.1368110236220463
20
-1.0680500393700787
11
9.1368110629921251
21
-1.0599507874015748
0
LINE
8
Edge.Cuts
6
CONTINUOUS
10
9.1368110629921251
20
-1.0599507874015748
11
9.1354737007874007
21
-1.0438075984251969
0
LINE
8
Edge.Cuts
6
CONTINUOUS
10
9.1354737007874007
20
-1.0438075984251969
11
9.1328081102362209
21
-1.0278299212598425
0
LINE
8
Edge.Cuts
6
CONTINUOUS
10
9.1328081102362209
20
-1.0278299212598425
11
9.1288325196850391
21
-1.0121268503937009
0
LINE
8
Edge.Cuts
6
CONTINUOUS
10
9.1288325196850391
20
-1.0121268503937009
11
9.1235740157480318
21
-0.9968056299212599
0
LINE
8
Edge.Cuts
6
CONTINUOUS
10
9.1235740157480318
20
-0.9968056299212599
11
9.1170685039370074
21
-0.9819708661417322
0
LINE
8
Edge.Cuts
6
CONTINUOUS
10
9.1170685039370074
20
-0.9819708661417322
11
9.1093604724409438
21
-0.9677238582677166
0
LINE
8
Edge.Cuts
6
CONTINUOUS
10
9.1093604724409438
20
-0.9677238582677166
11
9.1005025196850386
21
-0.9541618503937007
0
LINE
8
Edge.Cuts
6
CONTINUOUS
10
9.1005025196850386
20
-0.9541618503937007
11
9.0905550787401577
21
-0.9413774409448818
0
LINE
8
Edge.Cuts
6
CONTINUOUS
10
9.0905550787401577
20
-0.9413774409448818
11
9.0795861417322836
21
-0.9294579921259842
0
LINE
8
Edge.Cuts
6
CONTINUOUS
10
9.0795861417322836
20
-0.9294579921259842
11
9.067670590551181
21
-0.9184848031496062
0
LINE
8
Edge.Cuts
6
CONTINUOUS
10
9.067670590551181
20
-0.9184848031496062
11
9.0548897244094491
21
-0.908532874015748
0
LINE
8
Edge.Cuts
6
CONTINUOUS
10
9.0548897244094491
20
-0.908532874015748
11
9.0413308661417329
21
-0.8996700787401575
0
LINE
8
Edge.Cuts
6
CONTINUOUS
10
9.0413308661417329
20
-0.8996700787401575
11
9.0270865748031497
21
-0.891956968503937
0
LINE
8
Edge.Cuts
6
CONTINUOUS
10
9.0270865748031497
20
-0.891956968503937
11
9.0122541338582671
21
-0.8854462204724409
0
LINE
8
Edge.Cuts
6
CONTINUOUS
10
9.0122541338582671
20
-0.8854462204724409
11
8.9969347637795281
21
-0.880182283464567
0
LINE
8
Edge.Cuts
6
CONTINUOUS
10
8.9969347637795281
20
-0.880182283464567
11
8.9812331102362197
21
-0.8762011023622047
0
LINE
8
Edge.Cuts
6
CONTINUOUS
10
8.9812331102362197
20
-0.8762011023622047
11
8.9652563779527554
21
-0.873529842519685
0
LINE
8
Edge.Cuts
6
CONTINUOUS
10
8.9652563779527554
20
-0.873529842519685
11
8.9491136614173232
21
-0.8721867716535433
0
LINE
8
Edge.Cuts
6
CONTINUOUS
10
8.9491136614173232
20
-0.8721867716535433
11
8.9410144094488189
21
-0.872183937007874
0
LINE
8
Edge.Cuts
6
CONTINUOUS
10
8.9410144094488189
20
-0.872183937007874
11
1.8215533464566929
21
-0.8696565354330709
0
LINE
8
Edge.Cuts
6
CONTINUOUS
10
1.8215533464566929
20
-0.8696565354330709
11
1.8134502755905511
21
-0.8696537401574803
0
LINE
8
Edge.Cuts
6
CONTINUOUS
10
1.8134502755905511
20
-0.8696537401574803
11
1.797299094488189
21
-0.8709866141732283
  0
ENDSEC
  0
EOF
